<svg id="mermaid-1598439560639" width="1100.84375" xmlns="http://www.w3.org/2000/svg" height="1254.875" viewBox="-20 -20 1100.84375 1254.875"><style>#mermaid-1598439560639{font-family:"trebuchet ms",verdana,arial;font-size:16px;fill:#333;}#mermaid-1598439560639 .error-icon{fill:#552222;}#mermaid-1598439560639 .error-text{fill:#552222;stroke:#552222;}#mermaid-1598439560639 .edge-thickness-normal{stroke-width:2px;}#mermaid-1598439560639 .edge-thickness-thick{stroke-width:3.5px;}#mermaid-1598439560639 .edge-pattern-solid{stroke-dasharray:0;}#mermaid-1598439560639 .edge-pattern-dashed{stroke-dasharray:3;}#mermaid-1598439560639 .edge-pattern-dotted{stroke-dasharray:2;}#mermaid-1598439560639 .marker{fill:#333333;}#mermaid-1598439560639 .marker.cross{stroke:#333333;}#mermaid-1598439560639 svg{font-family:"trebuchet ms",verdana,arial;font-size:16px;}#mermaid-1598439560639 g.classGroup text{fill:#9370DB;fill:#131300;stroke:none;font-family:"trebuchet ms",verdana,arial;font-size:10px;}#mermaid-1598439560639 g.classGroup text .title{font-weight:bolder;}#mermaid-1598439560639 .node rect,#mermaid-1598439560639 .node circle,#mermaid-1598439560639 .node ellipse,#mermaid-1598439560639 .node polygon,#mermaid-1598439560639 .node path{fill:#ECECFF;stroke:#9370DB;stroke-width:1px;}#mermaid-1598439560639 .divider{stroke:#9370DB;stroke:1;}#mermaid-1598439560639 g.clickable{cursor:pointer;}#mermaid-1598439560639 g.classGroup rect{fill:#ECECFF;stroke:#9370DB;}#mermaid-1598439560639 g.classGroup line{stroke:#9370DB;stroke-width:1;}#mermaid-1598439560639 .classLabel .box{stroke:none;stroke-width:0;fill:#ECECFF;opacity:0.5;}#mermaid-1598439560639 .classLabel .label{fill:#9370DB;font-size:10px;}#mermaid-1598439560639 .relation{stroke:#333333;stroke-width:1;fill:none;}#mermaid-1598439560639 .dashed-line{stroke-dasharray:3;}#mermaid-1598439560639 #compositionStart,#mermaid-1598439560639 .composition{fill:#333333 !important;stroke:#333333 !important;stroke-width:1;}#mermaid-1598439560639 #compositionEnd,#mermaid-1598439560639 .composition{fill:#333333 !important;stroke:#333333 !important;stroke-width:1;}#mermaid-1598439560639 #dependencyStart,#mermaid-1598439560639 .dependency{fill:#333333 !important;stroke:#333333 !important;stroke-width:1;}#mermaid-1598439560639 #dependencyStart,#mermaid-1598439560639 .dependency{fill:#333333 !important;stroke:#333333 !important;stroke-width:1;}#mermaid-1598439560639 #extensionStart,#mermaid-1598439560639 .extension{fill:#333333 !important;stroke:#333333 !important;stroke-width:1;}#mermaid-1598439560639 #extensionEnd,#mermaid-1598439560639 .extension{fill:#333333 !important;stroke:#333333 !important;stroke-width:1;}#mermaid-1598439560639 #aggregationStart,#mermaid-1598439560639 .aggregation{fill:#ECECFF !important;stroke:#333333 !important;stroke-width:1;}#mermaid-1598439560639 #aggregationEnd,#mermaid-1598439560639 .aggregation{fill:#ECECFF !important;stroke:#333333 !important;stroke-width:1;}#mermaid-1598439560639:root{--mermaid-font-family:"trebuchet ms",verdana,arial;}#mermaid-1598439560639 class{fill:apa;}</style><g></g><defs><marker id="extensionStart" class="extension" refX="0" refY="7" markerWidth="190" markerHeight="240" orient="auto"><path d="M 1,7 L18,13 V 1 Z"></path></marker></defs><defs><marker id="extensionEnd" refX="19" refY="7" markerWidth="20" markerHeight="28" orient="auto"><path d="M 1,1 V 13 L18,7 Z"></path></marker></defs><defs><marker id="compositionStart" class="extension" refX="0" refY="7" markerWidth="190" markerHeight="240" orient="auto"><path d="M 18,7 L9,13 L1,7 L9,1 Z"></path></marker></defs><defs><marker id="compositionEnd" refX="19" refY="7" markerWidth="20" markerHeight="28" orient="auto"><path d="M 18,7 L9,13 L1,7 L9,1 Z"></path></marker></defs><defs><marker id="aggregationStart" class="extension" refX="0" refY="7" markerWidth="190" markerHeight="240" orient="auto"><path d="M 18,7 L9,13 L1,7 L9,1 Z"></path></marker></defs><defs><marker id="aggregationEnd" refX="19" refY="7" markerWidth="20" markerHeight="28" orient="auto"><path d="M 18,7 L9,13 L1,7 L9,1 Z"></path></marker></defs><defs><marker id="dependencyStart" class="extension" refX="0" refY="7" markerWidth="190" markerHeight="240" orient="auto"><path d="M 5,7 L9,13 L1,7 L9,1 Z"></path></marker></defs><defs><marker id="dependencyEnd" refX="19" refY="7" markerWidth="20" markerHeight="28" orient="auto"><path d="M 18,7 L9,13 L14,7 L9,1 Z"></path></marker></defs><g id="classid-DOCTYPES_COZY-0" class="classGroup" transform="translate(373.3125,440.765625 )"><rect x="0" y="0" width="136.625" height="78.09375" class=" "></rect><text y="15" x="0"><tspan x="44.6171875">«abstract»</tspan><tspan class="title" dy="10" x="28.6875">DOCTYPES_COZY</tspan></text><line x1="0" y1="31" y2="31" x2="136.625"></line><text x="5" y="41" fill="white" class="classText"><tspan x="5"># _id</tspan></text><line x1="0" y1="47" y2="47" x2="136.625"></line><text x="5" y="62" fill="white" class="classText"><tspan x="5">~cozymetadata()</tspan><tspan x="5" style="font-style:italic;" dy="10">~relationships()</tspan></text></g><g id="classid-relationships-1" class="classGroup" transform="translate(471.9453125,176.0625 )"><rect x="0" y="0" width="109.625" height="88.21875" class=" "></rect><text y="15" x="0"><tspan x="35.078125">«object»</tspan><tspan class="title" dy="10" x="24.7265625">relationships</tspan></text><line x1="0" y1="31.0625" y2="31.0625" x2="109.625"></line><text x="5" y="41.0625" fill="white" class="classText"><tspan x="5">objectName:</tspan><tspan x="5" dy="10">data:_id</tspan><tspan x="5" dy="10">data:_type</tspan></text><line x1="0" y1="67.125" y2="67.125" x2="109.625"></line><text x="5" y="82.125" fill="white" class="classText"><tspan x="5">data:_protocol()</tspan></text></g><g id="classid-_protocol-2" class="classGroup" transform="translate(465.5625,10 )"><rect x="0" y="0" width="122.390625" height="51.0625" class=" "></rect><text y="15" x="0"><tspan x="27.484375">«enumeration»</tspan><tspan class="title" dy="10" x="38.6796875">_protocol</tspan></text><line x1="0" y1="31.0625" y2="31.0625" x2="122.390625"></line><text x="5" y="41.0625" fill="white" class="classText"><tspan x="5">bitwarden</tspan></text><line x1="0" y1="47.0625" y2="47.0625" x2="122.390625"></line><text x="5" y="62.0625" fill="white" class="classText"></text></g><g id="classid-cozyMetadata-3" class="classGroup" transform="translate(291.0390625,121.0625 )"><rect x="0" y="0" width="130.90625" height="198.21875" class=" clickable"></rect><a xlink:href="https://docs.cozy.io/en/cozy-doctypes/docs/#document-metadata" target="_blank"><text y="15" x="0"><tspan x="45.71875">«object»</tspan><tspan class="title" dy="10" x="33.2890625">cozyMetadata</tspan></text></a><line x1="0" y1="31.0625" y2="31.0625" x2="130.90625"></line><text x="5" y="41.0625" fill="white" class="classText"><tspan x="5">doctypeVersion</tspan><tspan x="5" dy="10">metadataVersion</tspan><tspan x="5" dy="10">createdAt</tspan><tspan x="5" dy="10">createdByApp</tspan><tspan x="5" dy="10">createdByAppVersion</tspan><tspan x="5" dy="10">updatedAt</tspan><tspan x="5" dy="10">sourceAccount</tspan><tspan x="5" dy="10">sourceAccountIdentifier</tspan><tspan x="5" dy="10">createdOn</tspan><tspan x="5" dy="10">uploadedAt</tspan><tspan x="5" dy="10">uploadedOn</tspan><tspan x="5" dy="10"># uploadedBy:slug</tspan><tspan x="5" dy="10"># uploadedBy:version</tspan><tspan x="5" dy="10"># uploadedBy:oauthClient</tspan></text><line x1="0" y1="177.125" y2="177.125" x2="130.90625"></line><text x="5" y="192.125" fill="white" class="classText"><tspan x="5">updatedByApps()</tspan></text></g><g id="classid-updateByApps-4" class="classGroup" transform="translate(298.6796875,0 )"><rect x="0" y="0" width="115.625" height="71.0625" class=" "></rect><text y="15" x="0"><tspan x="38.078125">«object»</tspan><tspan class="title" dy="10" x="24.7265625">updateByApps</tspan></text><line x1="0" y1="31.0625" y2="31.0625" x2="115.625"></line><text x="5" y="41.0625" fill="white" class="classText"><tspan x="5">slug</tspan><tspan x="5" dy="10">date</tspan><tspan x="5" dy="10">version</tspan></text><line x1="0" y1="67.0625" y2="67.0625" x2="115.625"></line><text x="5" y="82.0625" fill="white" class="classText"></text></g><g id="classid-ACCOUNTS-5" class="classGroup" transform="translate(0,858.5 )"><rect x="0" y="0" width="197" height="198.15625" class=" clickable"></rect><a xlink:href="https://docs.cozy.io/en/cozy-doctypes/docs/io.cozy.accounts/" target="_blank"><text y="15" x="0"><tspan x="75.34375">«doctype»</tspan><tspan class="title" dy="10" x="28.1484375">ACCOUNTS&lt;io.cozy.accounts&gt;</tspan><title>see in docs.io.cozy</title></text></a><line x1="0" y1="31.0625" y2="31.0625" x2="197"></line><text x="5" y="41.0625" fill="white" class="classText"><tspan x="5">auth:credentials_encrypted</tspan><tspan x="5" dy="10">auth:login</tspan><tspan x="5" dy="10">auth:password</tspan><tspan x="5" dy="10">label</tspan><tspan x="5" dy="10">folderPath</tspan><tspan x="5" dy="10">namepath</tspan><tspan x="5" dy="10">state</tspan><tspan x="5" dy="10">TWOFA_NEEDED:TWOFA_NEEDED.EMAIL</tspan><tspan x="5" dy="10">TWOFA_NEEDED:TWOFA_NEEDED.SMS</tspan><tspan x="5" dy="10">TWOFA_NEEDED_RETRY</tspan><tspan x="5" dy="10">RESET_SESSION</tspan><tspan x="5" dy="10">twoFACode</tspan><tspan x="5" dy="10">mutedErrors</tspan></text><line x1="0" y1="167.0625" y2="167.0625" x2="197"></line><text x="5" y="182.0625" fill="white" class="classText"><tspan x="5">data()</tspan><tspan x="5" dy="10">relationships(parent,vaultCipher...)</tspan></text></g><g id="classid-BANK_ACCOUNTS-6" class="classGroup" transform="translate(314.53125,645.34375 )"><rect x="0" y="0" width="254.1875" height="158.15625" class=" clickable"></rect><a xlink:href="https://docs.cozy.io/en/cozy-doctypes/docs/io.cozy.bank/#iocozybankaccounts" target="_blank"><text y="15" x="0"><tspan x="103.9375">«doctype»</tspan><tspan class="title" dy="10" x="28.1484375">BANK_ACCOUNTS&lt;io.cozy.bank.accounts&gt;</tspan></text></a><line x1="0" y1="31.0625" y2="31.0625" x2="254.1875"></line><text x="5" y="41.0625" fill="white" class="classText"><tspan x="5">institutionLabel</tspan><tspan x="5" dy="10">number</tspan><tspan x="5" dy="10">label</tspan><tspan x="5" dy="10">balance</tspan><tspan x="5" dy="10">iban</tspan><tspan x="5" dy="10"># serviceID</tspan></text><line x1="0" y1="97.0625" y2="97.0625" x2="254.1875"></line><text x="5" y="112.0625" fill="white" class="classText"><tspan x="5">type()</tspan><tspan x="5" dy="10">connection()</tspan><tspan x="5" dy="10">checkingsAccount()</tspan><tspan x="5" dy="10">loan()</tspan><tspan x="5" dy="10">owners()</tspan></text></g><g id="classid-type__bankaccount-7" class="classGroup" transform="translate(267,907.015625 )"><rect x="0" y="0" width="169.53125" height="101.125" class=" "></rect><text y="15" x="0"><tspan x="51.0546875">«enumeration»</tspan><tspan class="title" dy="10" x="38.6953125">type__bankaccount</tspan></text><line x1="0" y1="31.0625" y2="31.0625" x2="169.53125"></line><text x="5" y="41.0625" fill="white" class="classText"><tspan x="5">none</tspan><tspan x="5" dy="10">bank</tspan><tspan x="5" dy="10">cash</tspan><tspan x="5" dy="10">asset</tspan><tspan x="5" dy="10">credit card</tspan><tspan x="5" dy="10">liability</tspan></text><line x1="0" y1="97.125" y2="97.125" x2="169.53125"></line><text x="5" y="112.125" fill="white" class="classText"></text></g><g id="classid-loan-8" class="classGroup" transform="translate(486.53125,907.078125 )"><rect x="0" y="0" width="89.90625" height="101" class=" "></rect><text y="15" x="0"><tspan x="25.21875">«object»</tspan><tspan class="title" dy="10" x="35.0234375">loan</tspan></text><line x1="0" y1="31" y2="31" x2="89.90625"></line><text x="5" y="41" fill="white" class="classText"><tspan x="5">contactName</tspan><tspan x="5" dy="10">totalAmount</tspan><tspan x="5" dy="10">availableAmount</tspan><tspan x="5" dy="10">usedAmount</tspan><tspan x="5" dy="10">subscriptionDate</tspan><tspan x="5" dy="10">...TBC</tspan></text><line x1="0" y1="97" y2="97" x2="89.90625"></line><text x="5" y="112" fill="white" class="classText"></text></g><g id="classid-CONTACTS-9" class="classGroup" transform="translate(626.4375,932.046875 )"><rect x="0" y="0" width="194.390625" height="51.0625" class=" clickable"></rect><a xlink:href="https://docs.cozy.io/en/cozy-doctypes/docs/io.cozy.contacts/#cozy-contacts-doctype" target="_blank"><text y="15" x="0"><tspan x="74.0390625">«doctype»</tspan><tspan class="title" dy="10" x="28.140625">CONTACTS&lt;io.cozy.contacts&gt;</tspan></text></a><line x1="0" y1="31.0625" y2="31.0625" x2="194.390625"></line><text x="5" y="41.0625" fill="white" class="classText"><tspan x="5">...TBC</tspan></text><line x1="0" y1="47.0625" y2="47.0625" x2="194.390625"></line><text x="5" y="62.0625" fill="white" class="classText"></text></g><g id="classid-FILES-10" class="classGroup" transform="translate(858.5078125,640.34375 )"><rect x="0" y="0" width="150.03125" height="168.15625" class=" clickable"></rect><a xlink:href="https://docs.cozy.io/en/cozy-doctypes/docs/io.cozy.files/" target="_blank"><text y="15" x="0"><tspan x="51.859375">«doctype»</tspan><tspan class="title" dy="10" x="28.1484375">FILES&lt;io.cozy.files&gt;</tspan></text></a><line x1="0" y1="31.0625" y2="31.0625" x2="150.03125"></line><text x="5" y="41.0625" fill="white" class="classText"><tspan x="5">name</tspan><tspan x="5" dy="10">trashed</tspan><tspan x="5" dy="10">md5sum</tspan><tspan x="5" dy="10">created_at</tspan><tspan x="5" dy="10">updated_at</tspan><tspan x="5" dy="10">tags</tspan><tspan x="5" dy="10">size</tspan><tspan x="5" dy="10">executable</tspan><tspan x="5" dy="10">class</tspan><tspan x="5" dy="10">mime</tspan></text><line x1="0" y1="137.0625" y2="137.0625" x2="150.03125"></line><text x="5" y="152.0625" fill="white" class="classText"><tspan x="5">type()</tspan><tspan x="5" dy="10">parent()</tspan></text></g><g id="classid-type__file-11" class="classGroup" transform="translate(870.828125,927.015625 )"><rect x="0" y="0" width="125.390625" height="61.125" class=" "></rect><text y="15" x="0"><tspan x="28.984375">«enumeration»</tspan><tspan class="title" dy="10" x="38.703125">type__file</tspan></text><line x1="0" y1="31.0625" y2="31.0625" x2="125.390625"></line><text x="5" y="41.0625" fill="white" class="classText"><tspan x="5">file</tspan><tspan x="5" dy="10">directory</tspan></text><line x1="0" y1="57.125" y2="57.125" x2="125.390625"></line><text x="5" y="72.125" fill="white" class="classText"></text></g><g id="classid-metadata-12" class="classGroup" transform="translate(892.765625,369.28125 )"><rect x="0" y="0" width="101.515625" height="221.0625" class=" clickable"></rect><a xlink:href="https://docs.cozy.io/en/cozy-doctypes/docs/io.cozy.files_metadata/" target="_blank"><text y="15" x="0"><tspan x="31.0234375">«object»</tspan><tspan class="title" dy="10" x="28.7265625">metadata</tspan></text></a><line x1="0" y1="31" y2="31" x2="101.515625"></line><text x="5" y="41" fill="white" class="classText"><tspan x="5">datetime</tspan><tspan x="5" dy="10">datetimeLabel</tspan><tspan x="5" dy="10">contentAuthor</tspan><tspan x="5" dy="10">classification</tspan><tspan x="5" dy="10">subClassification</tspan><tspan x="5" dy="10">categories</tspan><tspan x="5" dy="10">subjects</tspan><tspan x="5" dy="10">width</tspan><tspan x="5" dy="10">height</tspan><tspan x="5" dy="10">gps:lat</tspan><tspan x="5" dy="10">gps:long</tspan><tspan x="5" dy="10">gps:city</tspan><tspan x="5" dy="10">gps:zip</tspan><tspan x="5" dy="10">gps:country</tspan><tspan x="5" dy="10">persons:name</tspan><tspan x="5" dy="10">persons:created_at</tspan><tspan x="5" dy="10">persons:x</tspan><tspan x="5" dy="10">persons:y</tspan></text><line x1="0" y1="217.0625" y2="217.0625" x2="101.515625"></line><text x="5" y="232.0625" fill="white" class="classText"></text></g><g id="classid-TRIGGERS-13" class="classGroup" transform="translate(4.578125,1106.65625 )"><rect x="0" y="0" width="187.84375" height="108.21875" class=" clickable"></rect><a xlink:href="https://docs.cozy.io/en/cozy-doctypes/docs/io.cozy.triggers/" target="_blank"><text y="15" x="0"><tspan x="70.765625">«doctype»</tspan><tspan class="title" dy="10" x="28.1484375">TRIGGERS&lt;io.cozy.triggerd&gt;</tspan></text></a><line x1="0" y1="31.0625" y2="31.0625" x2="187.84375"></line><text x="5" y="41.0625" fill="white" class="classText"><tspan x="5">type</tspan><tspan x="5" dy="10">worker</tspan><tspan x="5" dy="10">arguments</tspan><tspan x="5" dy="10">debounce</tspan><tspan x="5" dy="10">message:konnector</tspan></text><line x1="0" y1="87.125" y2="87.125" x2="187.84375"></line><text x="5" y="102.125" fill="white" class="classText"><tspan x="5">message:account()</tspan></text></g><path d="M509.9375,502.54031799875344L566.4459635416666,521.3408899989612C622.9544270833334,540.1414619991689,735.9713541666666,577.7426059995845,795.7089694535465,600.7098446664589C855.4465847404264,623.6770833333334,861.9048882308529,632.0104166666666,865.134039976066,636.1770833333334L868.3631917212792,640.34375" id="edge0" class="relation" marker-start="url(#extensionStart)"></path><g class="classLabel"><rect class="box" x="662.84375" y="552.421875" width="63.25" height="16.015625"></rect><text class="label" x="694.4686262667021" y="563.9344969981253" fill="red" text-anchor="middle">inherits from</text></g><path d="M373.3125,506.0312002212389L325.84375,524.2499585176992C278.375,542.4687168141593,183.4375,578.9062334070796,135.96875,615.3046792035399C88.5,651.703125,88.5,688.0625,88.5,724.421875C88.5,760.78125,88.5,797.140625,88.83580993157874,819.4869791666666C89.17161986315746,841.8333333333334,89.8432397263149,850.1666666666666,90.17904965789364,854.3333333333334L90.51485958947237,858.5" id="edge1" class="relation" marker-start="url(#extensionStart)"></path><g class="classLabel"><rect class="box" x="85.734375" y="592.765625" width="63.265625" height="16.015625"></rect><text class="label" x="117.36322269007121" y="604.265891875501" fill="red" text-anchor="middle">inherits from</text></g><path d="M441.625,518.859375L441.625,534.9401041666666C441.625,551.0208333333334,441.625,583.1822916666666,441.625,604.2630208333334C441.625,625.34375,441.625,635.34375,441.625,640.34375L441.625,645.34375" id="edge2" class="relation" marker-start="url(#extensionStart)"></path><g class="classLabel"><rect class="box" x="410" y="570.59375" width="63.25" height="16.015625"></rect><text class="label" x="441.625" y="582.1015625" fill="red" text-anchor="middle">inherits from</text></g><path d="M356.4921875,71.0625L356.4921875,75.22916666666667C356.4921875,79.39583333333333,356.4921875,87.72916666666667,356.4921875,96.0625C356.4921875,104.39583333333333,356.4921875,112.72916666666667,356.4921875,116.89583333333333L356.4921875,121.0625" id="edge3" class="relation" marker-start="url(#aggregationStart)"></path><g class="classLabel"><rect class="box" x="318.828125" y="84.5625" width="75.328125" height="16.09375"></rect><text class="label" x="356.4921875" y="96.0625" fill="red" text-anchor="middle">updateByApps()</text></g><g class="cardinality"><text class="type1" x="346.4921875" y="83.5625" fill="black" font-size="6">1</text></g><g class="cardinality"><text class="type2" x="361.4921875" y="108.5625" fill="black" font-size="6">0..*</text></g><path d="M356.4921875,319.28125L356.4921875,323.4479166666667C356.4921875,327.6145833333333,356.4921875,335.9479166666667,366.59316200594685,356.1953125C376.69413651189376,376.4427083333333,396.8960855237876,408.6041666666667,406.9970600297344,424.6848958333333L417.09803453568134,440.765625" id="edge4" class="relation" marker-start="url(#compositionStart)"></path><g class="cardinality"><text class="type1" x="346.4921875" y="331.78125" fill="black" font-size="6">1</text></g><g class="cardinality"><text class="type2" x="414.683154529367" y="427.52106556772355" fill="black" font-size="6">0..1</text></g><path d="M526.7578125,264.28125L526.7578125,277.6145833333333C526.7578125,290.9479166666667,526.7578125,317.6145833333333,516.6568379940531,347.0286458333333C506.55586348810624,376.4427083333333,486.3539144762124,408.6041666666667,476.2529399702656,424.6848958333333L466.15196546431866,440.765625" id="edge5" class="relation" marker-start="url(#aggregationStart)"></path><g class="classLabel"><rect class="box" x="508.3125" y="347.140625" width="18.828125" height="16.015625"></rect><text class="label" x="517.7313132007108" y="358.6514170041359" fill="red" text-anchor="middle">list</text></g><g class="cardinality"><text class="type1" x="516.7578125" y="276.78125" fill="black" font-size="6">1</text></g><g class="cardinality"><text class="type2" x="477.03485059459905" y="432.8401716223614" fill="black" font-size="6">0..*</text></g><path d="M526.7578125,61.0625L526.7578125,66.89583333333333C526.7578125,72.72916666666667,526.7578125,84.39583333333333,526.7578125,103.5625C526.7578125,122.72916666666667,526.7578125,149.39583333333334,526.7578125,162.72916666666666L526.7578125,176.0625" id="edge6" class="relation dashed-line"></path><path d="M376.47984932316285,803.5L372.360811935969,808.5C368.24177454877525,813.5,360.0036997743876,823.5,355.8846623871938,840.7526041666666C351.765625,858.0052083333334,351.765625,882.5104166666666,351.765625,894.7630208333334L351.765625,907.015625" id="edge7" class="relation dashed-line"></path><path d="M568.71875,690.5770200276243L597.0286458333334,683.0381416896868C625.3385416666666,675.4992633517495,681.9583333333334,660.4215066758748,717.345703125,652.8826283379374C752.7330729166666,645.34375,766.8880208333334,645.34375,781.04296875,658.5234375C795.1979166666666,671.703125,809.3528645833334,698.0625,809.3528645833334,724.421875C809.3528645833334,750.78125,795.1979166666666,777.140625,781.04296875,790.3203125C766.8880208333334,803.5,752.7330729166666,803.5,717.345703125,795.9611216620627C681.9583333333334,788.4222433241252,625.3385416666666,773.3444866482505,597.0286458333334,765.8056083103132L568.71875,758.2667299723757" id="edge8" class="relation" marker-start="url(#compositionStart)"></path><g class="classLabel"><rect class="box" x="777.671875" y="712.921875" width="91.671875" height="16.09375"></rect><text class="label" x="823.5078125" y="724.421875" fill="red" text-anchor="middle">checkingAccounts()</text></g><g class="cardinality"><text class="type1" x="583.3710971127298" y="697.0236256529189" fill="black" font-size="6">0..1</text></g><g class="cardinality"><text class="type2" x="579.5111419432988" y="766.3149767468119" fill="black" font-size="6">1</text></g><path d="M314.53125,785.6299374159222L297.96484375,793.6082811799351C281.3984375,801.5866249439481,248.265625,817.543312471974,227.78257307145407,829.6883229026538C207.29952114290813,841.8333333333334,199.46622978581624,850.1666666666666,195.5495841072703,854.3333333333334L191.63293842872434,858.5" id="edge9" class="relation" marker-start="url(#compositionStart)"></path><g class="classLabel"><rect class="box" x="218.546875" y="805.5" width="61.65625" height="16.109375"></rect><text class="label" x="249.3756037236629" y="817.008749230286" fill="red" text-anchor="middle">connection()</text></g><g class="cardinality"><text class="type1" x="298.9302344649253" y="782.044088245313" fill="black" font-size="6">1</text></g><g class="cardinality"><text class="type2" x="203.83743668440343" y="852.8166715450252" fill="black" font-size="6">0..*</text></g><path d="M568.71875,773.5806122219298L594.5377604166666,783.5671768516081C620.3567708333334,793.5537414812865,671.9947916666666,813.5268707406432,697.8138020833334,839.9379145369884C723.6328125,866.3489583333334,723.6328125,899.1979166666666,723.6328125,915.6223958333334L723.6328125,932.046875" id="edge10" class="relation" marker-start="url(#compositionStart)"></path><g class="classLabel"><rect class="box" x="673.796875" y="809.8125" width="36.671875" height="16.015625"></rect><text class="label" x="692.131343907791" y="821.3155108600598" fill="red" text-anchor="middle">owners</text></g><g class="cardinality"><text class="type1" x="576.7695884610155" y="787.4165798452887" fill="black" font-size="6">1..n</text></g><g class="cardinality"><text class="type2" x="728.6328125" y="919.546875" fill="black" font-size="6">0..n</text></g><path d="M506.77015067683715,803.5L510.889188064031,808.5C515.0082254512248,813.5,523.2463002256123,823.5,527.3653376128062,840.7630208333334C531.484375,858.0260416666666,531.484375,882.5520833333334,531.484375,894.8151041666666L531.484375,907.078125" id="edge11" class="relation" marker-start="url(#compositionStart)"></path><g class="classLabel"><rect class="box" x="515.78125" y="839.34375" width="31.40625" height="16.109375"></rect><text class="label" x="531.484375" y="850.8546028735041" fill="red" text-anchor="middle">loan()</text></g><g class="cardinality"><text class="type1" x="506.99984072768285" y="819.5061626407002" fill="black" font-size="6">0..1</text></g><g class="cardinality"><text class="type2" x="536.484375" y="894.578125" fill="black" font-size="6">1</text></g><path d="M1008.5390625,660.29132189006L1012.427951388889,656.96672657505C1016.3168402777778,653.64213126004,1024.0946180555557,646.9929406300199,1028.9557291666667,643.66834531501C1033.8168402777778,640.34375,1035.7612847222222,640.34375,1037.7057291666667,654.3567708333334C1039.650173611111,668.3697916666666,1041.5946180555554,696.3958333333334,1041.5946180555554,724.421875C1041.5946180555554,752.4479166666666,1039.650173611111,780.4739583333334,1037.7057291666667,794.4869791666666C1035.7612847222222,808.5,1033.8168402777778,808.5,1028.9557291666667,805.17540468499C1024.0946180555557,801.8508093699801,1016.3168402777778,795.20161873996,1012.427951388889,791.87702342495L1008.5390625,788.55242810994" id="edge12" class="relation" marker-start="url(#compositionStart)"></path><g class="classLabel"><rect class="box" x="1026.234375" y="712.921875" width="34.609375" height="16.0625"></rect><text class="label" x="1043.5390625" y="724.421875" fill="red" text-anchor="middle">parent</text></g><g class="cardinality"><text class="type1" x="1024.5383735592545" y="659.769741954467" fill="black" font-size="6">1</text></g><g class="cardinality"><text class="type2" x="1014.7912793277936" y="800.4755059314697" fill="black" font-size="6">0..n</text></g><path d="M933.5234375,808.5L933.5234375,812.6666666666666C933.5234375,816.8333333333334,933.5234375,825.1666666666666,933.5234375,844.9192708333334C933.5234375,864.671875,933.5234375,895.84375,933.5234375,911.4296875L933.5234375,927.015625" id="edge13" class="relation dashed-line"></path><g class="classLabel"><rect class="box" x="919.875" y="856.25" width="27.296875" height="16.109375"></rect><text class="label" x="933.5234375" y="867.7578125" fill="red" text-anchor="middle">file()</text></g><path d="M943.5234375,590.34375L943.5234375,594.5104166666666C943.5234375,598.6770833333334,943.5234375,607.0104166666666,943.1414482911952,615.34375C942.7594590823902,623.6770833333334,941.9954806647805,632.0104166666666,941.6134914559757,636.1770833333334L941.2315022471709,640.34375" id="edge14" class="relation" marker-start="url(#aggregationStart)"></path><path d="M197,877.4752906976744L200.88888888888889,874.312742248062C204.77777777777774,871.1501937984495,212.55555555555554,864.8250968992248,217.41666666666666,861.6625484496125C222.27777777777774,858.5,224.22222222222226,858.5,226.16666666666666,875.0130208333334C228.11111111111111,891.5260416666666,230.05555555555557,924.5520833333334,230.05555555555557,957.578125C230.05555555555557,990.6041666666666,228.11111111111111,1023.6302083333334,226.16666666666666,1040.1432291666667C224.22222222222226,1056.65625,222.27777777777774,1056.65625,217.41666666666666,1053.4937015503876C212.55555555555554,1050.331153100775,204.77777777777774,1044.0060562015503,200.88888888888889,1040.843507751938L197,1037.6809593023256" id="edge15" class="relation" marker-start="url(#compositionStart)"></path><g class="classLabel"><rect class="box" x="197.234375" y="946.078125" width="69.53125" height="16.09375"></rect><text class="label" x="232" y="957.578125" fill="red" text-anchor="middle">relationships()</text></g><g class="cardinality"><text class="type1" x="213.00729665284513" y="877.3470180668705" fill="black" font-size="6">0..1</text></g><g class="cardinality"><text class="type2" x="203.54331376034756" y="1049.4468016025455" fill="black" font-size="6">1</text></g><path d="M98.5,1056.65625L98.5,1060.8229166666667C98.5,1064.9895833333333,98.5,1073.3229166666667,98.5,1081.65625C98.5,1089.9895833333333,98.5,1098.3229166666667,98.5,1102.4895833333333L98.5,1106.65625" id="edge16" class="relation" marker-end="url(#compositionEnd)"></path><g class="classLabel"><rect class="box" x="53.984375" y="1070.15625" width="89.03125" height="16.09375"></rect><text class="label" x="98.5" y="1081.65625" fill="red" text-anchor="middle">message.account()</text></g><g class="cardinality"><text class="type1" x="93.5" y="1069.15625" fill="black" font-size="6">0..1</text></g><g class="cardinality"><text class="type2" x="108.5" y="1094.15625" fill="black" font-size="6">1</text></g></svg>